# xmcd CD database file
#
# Track frame offsets:
#	150
#	19477
#	35860
#	51932
#	68567
#	87657
#	104620
#	115985
#	136470
#	156015
#	175337
#	193692
#	208600
#	227020
#	240525
#	256950
#
# Disc length: 3627 seconds
#
# Revision: 0
# Processed by: cddbd v1.5.1PL0 Copyright (c) Steve Scherf et al.
# Submitted via: CDex 1.51
#
DISCID=ea0e2910
DTITLE=Various Artist - EUROBEAT X-PRESS 2
DYEAR=1996
DGENRE=Eurodance
TTITLE0=SUMMER IS CRAZY - ALEXIA
TTITLE1=DANCING WITH AN ANGEL - DOUBLE YOU
TTITLE2=I WILL BE - PANAMA
TTITLE3=BABY BABY - CORONA
TTITLE4=THINK ABOUT THE WAY - ICE MC
TTITLE5=PASSION - NETZWERK
TTITLE6=RUN TO U - NOLANS
TTITLE7=DON'T CRY TONIGHT - SAVAGE
TTITLE8=LIES - D.LIES
TTITLE9=GIVE ME ECSTASY - TORO
TTITLE10=RUN AWAY - TIME MACHINE
TTITLE11=DON'T LEAVE ME - FOURTEEN 14
TTITLE12=DARK NIGHT RIDER - ICE MC
TTITLE13=WHAT'S IN YOUR TENTION - NOLANS
TTITLE14=RUN TO ME - DOUBLE YOU
TTITLE15=I GOTTA KEEP DANCIN' - CORONA
EXTD=YEAR: 1996
EXTT0=
EXTT1=
EXTT2=
EXTT3=
EXTT4=
EXTT5=
EXTT6=
EXTT7=
EXTT8=
EXTT9=
EXTT10=
EXTT11=
EXTT12=
EXTT13=
EXTT14=
EXTT15=
PLAYORDER=
